<mxfile host="app.diagrams.net" agent="Mozilla/5.0 (X11; Linux x86_64) AppleWebKit/537.36 (KHTML, like Gecko) Chrome/130.0.0.0 Safari/537.36" scale="1" border="10" version="25.0.3">
  <diagram name="Copia de Modelo General" id="Ij3a28A8uiQY0N2pdd1F">
    <mxGraphModel dx="1156" dy="1128" grid="0" gridSize="10" guides="1" tooltips="1" connect="1" arrows="1" fold="1" page="0" pageScale="1" pageWidth="1100" pageHeight="850" background="none" math="0" shadow="0">
      <root>
        <mxCell id="zNRPTmnQBVuV7urIA7Vq-0" />
        <mxCell id="zNRPTmnQBVuV7urIA7Vq-1" parent="zNRPTmnQBVuV7urIA7Vq-0" />
        <mxCell id="zNRPTmnQBVuV7urIA7Vq-2" value="&lt;div style=&quot;box-sizing: border-box ; width: 100% ; background: #e4e4e4 ; padding: 2px&quot;&gt;estado_contrato&lt;/div&gt;&lt;table style=&quot;width: 100% ; font-size: 1em&quot; cellpadding=&quot;2&quot; cellspacing=&quot;0&quot;&gt;&lt;tbody&gt;&lt;tr&gt;&lt;td&gt;serial&lt;span style=&quot;white-space: pre;&quot;&gt;&#x9;&lt;/span&gt;&lt;/td&gt;&lt;td&gt;id PK&lt;/td&gt;&lt;/tr&gt;&lt;tr&gt;&lt;td&gt;integer&lt;/td&gt;&lt;td&gt;&lt;font color=&quot;#ff9933&quot;&gt;usuario_id&lt;/font&gt;&lt;/td&gt;&lt;/tr&gt;&lt;tr&gt;&lt;td&gt;varchar[25]&lt;/td&gt;&lt;td&gt;usuario_rol&lt;/td&gt;&lt;/tr&gt;&lt;tr&gt;&lt;td&gt;varchar[250]&lt;/td&gt;&lt;td&gt;motivo&lt;/td&gt;&lt;/tr&gt;&lt;tr&gt;&lt;td&gt;timestamp&lt;/td&gt;&lt;td&gt;fecha_ejecucion_estado&lt;br&gt;&lt;/td&gt;&lt;/tr&gt;&lt;tr&gt;&lt;td&gt;integer&lt;/td&gt;&lt;td&gt;&lt;span style=&quot;color: rgb(102, 178, 255);&quot;&gt;contrato_general_id FK&lt;/span&gt;&lt;br style=&quot;color: rgb(102, 178, 255);&quot;&gt;&lt;/td&gt;&lt;/tr&gt;&lt;tr&gt;&lt;td&gt;integer&lt;br&gt;&lt;/td&gt;&lt;td&gt;&lt;font color=&quot;#ff8000&quot;&gt;estado_parametro_id&lt;br&gt;&lt;/font&gt;&lt;/td&gt;&lt;/tr&gt;&lt;tr&gt;&lt;td&gt;bool&lt;br&gt;&lt;/td&gt;&lt;td&gt;&lt;font color=&quot;#ff0000&quot;&gt;activo NN&lt;br style=&quot;&quot;&gt;&lt;/font&gt;&lt;/td&gt;&lt;/tr&gt;&lt;tr&gt;&lt;td&gt;date&lt;/td&gt;&lt;td&gt;&lt;font color=&quot;#ff0000&quot;&gt;fecha_creacion NN&lt;br style=&quot;&quot;&gt;&lt;/font&gt;&lt;/td&gt;&lt;/tr&gt;&lt;tr&gt;&lt;td&gt;timestamp&lt;br&gt;&lt;/td&gt;&lt;td&gt;&lt;font color=&quot;#ff0000&quot;&gt;fecha_modificacion NN&lt;/font&gt;&lt;br&gt;&lt;/td&gt;&lt;/tr&gt;&lt;/tbody&gt;&lt;/table&gt;" style="verticalAlign=top;align=left;overflow=fill;html=1;rounded=0;shadow=0;comic=0;labelBackgroundColor=none;strokeWidth=1;fontFamily=Verdana;fontSize=12" parent="zNRPTmnQBVuV7urIA7Vq-1" vertex="1">
          <mxGeometry x="880" y="711" width="274" height="220" as="geometry" />
        </mxCell>
        <mxCell id="zNRPTmnQBVuV7urIA7Vq-3" style="edgeStyle=orthogonalEdgeStyle;html=1;labelBackgroundColor=none;startArrow=ERone;endArrow=ERone;fontFamily=Verdana;fontSize=12;align=left;dashed=1;startFill=0;endFill=0;exitX=1;exitY=0.73;exitDx=0;exitDy=0;exitPerimeter=0;" parent="zNRPTmnQBVuV7urIA7Vq-1" source="zNRPTmnQBVuV7urIA7Vq-4" target="zNRPTmnQBVuV7urIA7Vq-2" edge="1">
          <mxGeometry relative="1" as="geometry">
            <mxPoint x="806" y="758" as="targetPoint" />
          </mxGeometry>
        </mxCell>
        <mxCell id="zNRPTmnQBVuV7urIA7Vq-4" value="&lt;div style=&quot;box-sizing: border-box ; width: 100% ; background: #e4e4e4 ; padding: 2px&quot;&gt;contrato_general&lt;/div&gt;&lt;table style=&quot;width: 100% ; font-size: 1em&quot; cellpadding=&quot;2&quot; cellspacing=&quot;0&quot;&gt;&lt;tbody&gt;&lt;tr&gt;&lt;td&gt;serial&lt;/td&gt;&lt;td&gt;id PK NN&lt;/td&gt;&lt;/tr&gt;&lt;tr&gt;&lt;td&gt;integer&lt;br&gt;&lt;/td&gt;&lt;td&gt;&lt;font color=&quot;#ff8000&quot;&gt;&lt;b&gt;tipo_compromiso_id&lt;/b&gt;&lt;/font&gt;&lt;/td&gt;&lt;/tr&gt;&lt;tr&gt;&lt;td&gt;integer&lt;br&gt;&lt;/td&gt;&lt;td&gt;&lt;font color=&quot;#ff8000&quot;&gt;&lt;b&gt;tipo_contrato_id&lt;/b&gt;&lt;/font&gt;&lt;/td&gt;&lt;/tr&gt;&lt;tr&gt;&lt;td&gt;integer&lt;br&gt;&lt;/td&gt;&lt;td&gt;&lt;font color=&quot;#ff8000&quot;&gt;perfil_contratista_id&lt;br&gt;&lt;/font&gt;&lt;/td&gt;&lt;/tr&gt;&lt;tr&gt;&lt;td&gt;date&lt;br&gt;&lt;/td&gt;&lt;td&gt;fecha_suscripcion_estudios&amp;nbsp;&lt;br&gt;&lt;/td&gt;&lt;/tr&gt;&lt;tr&gt;&lt;td&gt;bool&lt;br&gt;&lt;/td&gt;&lt;td&gt;aplica_poliza&lt;br&gt;&lt;/td&gt;&lt;/tr&gt;&lt;tr&gt;&lt;td&gt;integer&lt;br&gt;&lt;/td&gt;&lt;td&gt;&lt;font color=&quot;#ff8000&quot;&gt;&lt;b&gt;modalidad seleccion_id&lt;/b&gt;&lt;/font&gt;&lt;/td&gt;&lt;/tr&gt;&lt;tr&gt;&lt;td&gt;integer&lt;br&gt;&lt;/td&gt;&lt;td&gt;&lt;font color=&quot;#ff8000&quot;&gt;&lt;b&gt;tipologia_especifica_id&lt;/b&gt;&lt;/font&gt;&lt;/td&gt;&lt;/tr&gt;&lt;tr&gt;&lt;td&gt;integer&lt;br&gt;&lt;/td&gt;&lt;td&gt;&lt;font color=&quot;#ff8000&quot;&gt;&lt;b&gt;regimen_contratacion_id&lt;/b&gt;&lt;br&gt;&lt;/font&gt;&lt;/td&gt;&lt;/tr&gt;&lt;tr&gt;&lt;td&gt;integer&lt;br&gt;&lt;/td&gt;&lt;td&gt;&lt;font color=&quot;#ff8000&quot;&gt;&lt;b&gt;procedimiento_id&lt;/b&gt;&lt;/font&gt;&lt;/td&gt;&lt;/tr&gt;&lt;tr&gt;&lt;td&gt;integer&lt;br&gt;&lt;/td&gt;&lt;td&gt;&lt;b&gt;plazo_ejecucion&lt;/b&gt;&lt;br&gt;&lt;/td&gt;&lt;/tr&gt;&lt;tr&gt;&lt;td&gt;integer&lt;/td&gt;&lt;td&gt;&lt;font color=&quot;#ff8000&quot;&gt;&lt;b&gt;unidad_ejecucion_id&lt;/b&gt;&lt;br&gt;&lt;/font&gt;&lt;/td&gt;&lt;/tr&gt;&lt;tr&gt;&lt;td&gt;&lt;strike&gt;integer&lt;/strike&gt;&lt;/td&gt;&lt;td&gt;&lt;strike&gt;numero_constancia&lt;/strike&gt;&lt;br&gt;&lt;/td&gt;&lt;/tr&gt;&lt;tr&gt;&lt;td&gt;integer&lt;/td&gt;&lt;td&gt;&lt;span style=&quot;color: rgb(255, 128, 0);&quot;&gt;&lt;b&gt;tipo_moneda_id&lt;/b&gt;&lt;/span&gt;&lt;br&gt;&lt;/td&gt;&lt;/tr&gt;&lt;tr&gt;&lt;td&gt;numeric(16,2)&lt;br&gt;&lt;/td&gt;&lt;td&gt;&lt;b&gt;valor_pesos&lt;/b&gt;&lt;font color=&quot;#ff8000&quot;&gt;&lt;br&gt;&lt;/font&gt;&lt;/td&gt;&lt;/tr&gt;&lt;tr&gt;&lt;td&gt;integer&lt;br&gt;&lt;/td&gt;&lt;td&gt;&lt;span style=&quot;color: rgb(255, 128, 0);&quot;&gt;&lt;b&gt;tipo_gasto_id&lt;/b&gt;&lt;/span&gt;&lt;br&gt;&lt;/td&gt;&lt;/tr&gt;&lt;tr&gt;&lt;td&gt;integer&lt;br&gt;&lt;/td&gt;&lt;td&gt;&lt;span style=&quot;color: rgb(255, 128, 0);&quot;&gt;&lt;b&gt;origen_recursos_id&lt;/b&gt;&lt;/span&gt;&lt;font color=&quot;#ff8000&quot;&gt;&lt;br style=&quot;&quot;&gt;&lt;/font&gt;&lt;/td&gt;&lt;/tr&gt;&lt;tr&gt;&lt;td&gt;integer&lt;br&gt;&lt;/td&gt;&lt;td&gt;&lt;span style=&quot;color: rgb(255, 128, 0);&quot;&gt;&lt;b&gt;origen_presupuestos_id&lt;/b&gt;&lt;/span&gt;&lt;font color=&quot;#ff8000&quot;&gt;&lt;br style=&quot;&quot;&gt;&lt;/font&gt;&lt;/td&gt;&lt;/tr&gt;&lt;tr&gt;&lt;td&gt;integer&lt;br&gt;&lt;/td&gt;&lt;td&gt;&lt;span style=&quot;color: rgb(255, 128, 0);&quot;&gt;&lt;b&gt;tema_gasto_inversion_id&lt;/b&gt;&lt;/span&gt;&lt;font color=&quot;#ff8000&quot;&gt;&lt;br style=&quot;&quot;&gt;&lt;/font&gt;&lt;/td&gt;&lt;/tr&gt;&lt;tr&gt;&lt;td&gt;numeric(16,3)&lt;br&gt;&lt;/td&gt;&lt;td&gt;&lt;b&gt;valor_contrato_me&lt;/b&gt;&lt;font color=&quot;#ff8000&quot;&gt;&lt;br style=&quot;&quot;&gt;&lt;/font&gt;&lt;/td&gt;&lt;/tr&gt;&lt;tr&gt;&lt;td&gt;numeric(16,10)&lt;br&gt;&lt;/td&gt;&lt;td&gt;&lt;b&gt;valor_tasa_cambio&lt;/b&gt;&lt;br&gt;&lt;/td&gt;&lt;/tr&gt;&lt;tr&gt;&lt;td&gt;integer&lt;br&gt;&lt;/td&gt;&lt;td&gt;&lt;span style=&quot;color: rgb(255, 128, 0);&quot;&gt;medio_pago_id&lt;/span&gt;&lt;br&gt;&lt;/td&gt;&lt;/tr&gt;&lt;tr&gt;&lt;td&gt;bool&lt;br&gt;&lt;/td&gt;&lt;td&gt;&lt;b&gt;clausula_registro_presupuestal&lt;/b&gt;&lt;br&gt;&lt;/td&gt;&lt;/tr&gt;&lt;tr&gt;&lt;td&gt;varchar&lt;br&gt;&lt;/td&gt;&lt;td&gt;&lt;b&gt;modo_pago&lt;/b&gt;&lt;br&gt;&lt;/td&gt;&lt;/tr&gt;&lt;tr&gt;&lt;td&gt;varchar&lt;br&gt;&lt;/td&gt;&lt;td&gt;&lt;b&gt;objeto&lt;/b&gt;&lt;br&gt;&lt;/td&gt;&lt;/tr&gt;&lt;tr&gt;&lt;td&gt;varchar&lt;br&gt;&lt;/td&gt;&lt;td&gt;&lt;b&gt;actividades&lt;/b&gt;&lt;br&gt;&lt;/td&gt;&lt;/tr&gt;&lt;tr&gt;&lt;td&gt;varchar&lt;br&gt;&lt;/td&gt;&lt;td&gt;&lt;b&gt;condiciones&lt;/b&gt;&lt;br&gt;&lt;/td&gt;&lt;/tr&gt;&lt;tr&gt;&lt;td&gt;varchar&lt;br&gt;&lt;/td&gt;&lt;td&gt;&lt;b&gt;justificacion&lt;/b&gt;&lt;br&gt;&lt;/td&gt;&lt;/tr&gt;&lt;tr&gt;&lt;td&gt;varchar[500]&lt;br&gt;&lt;/td&gt;&lt;td&gt;&lt;b&gt;observaciones&lt;/b&gt;&lt;br&gt;&lt;/td&gt;&lt;/tr&gt;&lt;tr&gt;&lt;td&gt;varchar[4]&lt;br&gt;&lt;/td&gt;&lt;td&gt;&lt;b&gt;vigencia&lt;/b&gt;&lt;br&gt;&lt;/td&gt;&lt;/tr&gt;&lt;tr&gt;&lt;td&gt;varchar[50]&lt;br&gt;&lt;/td&gt;&lt;td&gt;consecutivo_elaboracion&lt;br&gt;&lt;/td&gt;&lt;/tr&gt;&lt;tr&gt;&lt;td&gt;date&lt;/td&gt;&lt;td&gt;fecha_inicial&lt;br&gt;&lt;/td&gt;&lt;/tr&gt;&lt;tr&gt;&lt;td&gt;date&lt;br&gt;&lt;/td&gt;&lt;td&gt;fecha_final&lt;br&gt;&lt;/td&gt;&lt;/tr&gt;&lt;tr&gt;&lt;td&gt;varchar[15]&lt;br&gt;&lt;/td&gt;&lt;td&gt;&lt;b&gt;usuario_legado&lt;/b&gt;&lt;br&gt;&lt;/td&gt;&lt;/tr&gt;&lt;tr&gt;&lt;td&gt;varchar&lt;/td&gt;&lt;td&gt;numero_contrato&lt;/td&gt;&lt;/tr&gt;&lt;tr&gt;&lt;td&gt;integer&lt;/td&gt;&lt;td&gt;&lt;b style=&quot;&quot;&gt;tipo_control&lt;/b&gt;&lt;/td&gt;&lt;/tr&gt;&lt;tr&gt;&lt;td&gt;bool&lt;br&gt;&lt;/td&gt;&lt;td&gt;&lt;b&gt;&lt;span style=&quot;color: rgb(255, 0, 0);&quot;&gt;activo NN&lt;/span&gt;&lt;br&gt;&lt;/b&gt;&lt;/td&gt;&lt;/tr&gt;&lt;tr&gt;&lt;td&gt;timestamp&lt;br&gt;&lt;/td&gt;&lt;td&gt;&lt;b&gt;&lt;span style=&quot;color: rgb(255, 0, 0);&quot;&gt;fecha_creacion NN&lt;/span&gt;&lt;br style=&quot;color: rgb(255, 0, 0);&quot;&gt;&lt;/b&gt;&lt;/td&gt;&lt;/tr&gt;&lt;tr&gt;&lt;td&gt;timestamp&lt;br&gt;&lt;/td&gt;&lt;td&gt;&lt;span style=&quot;color: rgb(255, 0, 0);&quot;&gt;fecha_modificacion NN&lt;/span&gt;&lt;br style=&quot;color: rgb(255, 0, 0);&quot;&gt;&lt;/td&gt;&lt;/tr&gt;&lt;tr&gt;&lt;td&gt;&lt;br&gt;&lt;/td&gt;&lt;td&gt;&lt;br style=&quot;color: rgb(255, 0, 0);&quot;&gt;&lt;/td&gt;&lt;/tr&gt;&lt;/tbody&gt;&lt;/table&gt;" style="verticalAlign=top;align=left;overflow=fill;html=1;rounded=0;shadow=0;comic=0;labelBackgroundColor=none;strokeWidth=1;fontFamily=Verdana;fontSize=12" parent="zNRPTmnQBVuV7urIA7Vq-1" vertex="1">
          <mxGeometry x="390" y="102" width="336" height="748" as="geometry" />
        </mxCell>
        <mxCell id="zNRPTmnQBVuV7urIA7Vq-7" value="&lt;div style=&quot;box-sizing: border-box ; width: 100% ; background: #e4e4e4 ; padding: 2px&quot;&gt;lugar_ejecucion&lt;/div&gt;&lt;table style=&quot;width: 100% ; font-size: 1em&quot; cellpadding=&quot;2&quot; cellspacing=&quot;0&quot;&gt;&lt;tbody&gt;&lt;tr&gt;&lt;td&gt;serial&lt;span style=&quot;white-space: pre;&quot;&gt;&#x9;&lt;span style=&quot;white-space: pre;&quot;&gt;&#x9;&lt;/span&gt;&lt;/span&gt;&lt;/td&gt;&lt;td&gt;id PK&lt;/td&gt;&lt;/tr&gt;&lt;tr&gt;&lt;td&gt;integer&lt;/td&gt;&lt;td&gt;&lt;font color=&quot;#ff8000&quot;&gt;pais_id&lt;/font&gt;&lt;/td&gt;&lt;/tr&gt;&lt;tr&gt;&lt;td&gt;integer&lt;/td&gt;&lt;td&gt;&lt;font color=&quot;#ff8000&quot;&gt;&lt;b&gt;ciudad_id&lt;/b&gt;&lt;br&gt;&lt;/font&gt;&lt;/td&gt;&lt;/tr&gt;&lt;tr&gt;&lt;td&gt;integer&lt;/td&gt;&lt;td&gt;&lt;span style=&quot;color: rgb(255, 128, 0);&quot;&gt;municipio&lt;/span&gt;&lt;font color=&quot;#ff8000&quot;&gt;_id&lt;/font&gt;&lt;/td&gt;&lt;/tr&gt;&lt;tr&gt;&lt;td&gt;integer&lt;/td&gt;&lt;td&gt;&lt;font color=&quot;#ff8000&quot;&gt;&lt;b&gt;dependencia_id&lt;/b&gt;&lt;/font&gt;&lt;/td&gt;&lt;/tr&gt;&lt;tr&gt;&lt;td&gt;integer&lt;/td&gt;&lt;td&gt;&lt;font color=&quot;#ff8000&quot;&gt;&lt;b&gt;sede_id&lt;/b&gt;&lt;/font&gt;&lt;/td&gt;&lt;/tr&gt;&lt;tr&gt;&lt;td&gt;varchar[120]&lt;/td&gt;&lt;td&gt;&lt;b&gt;direccion&lt;/b&gt;&lt;/td&gt;&lt;/tr&gt;&lt;tr&gt;&lt;td&gt;integer&lt;br&gt;&lt;/td&gt;&lt;td&gt;&lt;span style=&quot;color: rgb(102, 178, 255);&quot;&gt;contrato_general_id FK&lt;/span&gt;&lt;br style=&quot;color: rgb(102, 178, 255);&quot;&gt;&lt;/td&gt;&lt;/tr&gt;&lt;tr&gt;&lt;td&gt;bool&lt;br&gt;&lt;/td&gt;&lt;td&gt;&lt;font color=&quot;#ff0000&quot;&gt;activo NN&lt;br style=&quot;&quot;&gt;&lt;/font&gt;&lt;/td&gt;&lt;/tr&gt;&lt;tr&gt;&lt;td&gt;timestamp&lt;/td&gt;&lt;td&gt;&lt;font color=&quot;#ff0000&quot;&gt;fecha_creacion NN&lt;br style=&quot;&quot;&gt;&lt;/font&gt;&lt;/td&gt;&lt;/tr&gt;&lt;tr&gt;&lt;td&gt;timestamp&lt;/td&gt;&lt;td&gt;&lt;span style=&quot;color: rgb(255, 0, 0);&quot;&gt;fecha_modificacion NN&lt;/span&gt;&lt;/td&gt;&lt;/tr&gt;&lt;/tbody&gt;&lt;/table&gt;" style="verticalAlign=top;align=left;overflow=fill;html=1;rounded=0;shadow=0;comic=0;labelBackgroundColor=none;strokeWidth=1;fontFamily=Verdana;fontSize=12;" parent="zNRPTmnQBVuV7urIA7Vq-1" vertex="1">
          <mxGeometry x="878.5" y="246" width="260" height="235.5" as="geometry" />
        </mxCell>
        <mxCell id="zNRPTmnQBVuV7urIA7Vq-8" style="edgeStyle=orthogonalEdgeStyle;html=1;labelBackgroundColor=none;startArrow=ERone;endArrow=ERone;fontFamily=Verdana;fontSize=12;align=left;dashed=1;startFill=0;endFill=0;" parent="zNRPTmnQBVuV7urIA7Vq-1" source="zNRPTmnQBVuV7urIA7Vq-4" target="zNRPTmnQBVuV7urIA7Vq-7" edge="1">
          <mxGeometry relative="1" as="geometry">
            <mxPoint x="696" y="265.75" as="sourcePoint" />
            <mxPoint x="1089" y="207" as="targetPoint" />
            <Array as="points">
              <mxPoint x="769" y="266" />
              <mxPoint x="769" y="305" />
            </Array>
          </mxGeometry>
        </mxCell>
        <mxCell id="zNRPTmnQBVuV7urIA7Vq-11" value="&lt;div style=&quot;box-sizing: border-box ; width: 100% ; background: #e4e4e4 ; padding: 2px&quot;&gt;convenio&lt;/div&gt;&lt;table style=&quot;width: 100% ; font-size: 1em&quot; cellpadding=&quot;2&quot; cellspacing=&quot;0&quot;&gt;&lt;tbody&gt;&lt;tr&gt;&lt;td&gt;serial&lt;span style=&quot;white-space: pre;&quot;&gt;&#x9;&lt;/span&gt;&lt;/td&gt;&lt;td&gt;id PK&amp;nbsp;&lt;/td&gt;&lt;/tr&gt;&lt;tr&gt;&lt;td&gt;integer&lt;/td&gt;&lt;td&gt;vigencia NN&lt;/td&gt;&lt;/tr&gt;&lt;tr&gt;&lt;td&gt;varchar[100]&lt;/td&gt;&lt;td&gt;nombre NN&lt;/td&gt;&lt;/tr&gt;&lt;tr&gt;&lt;td&gt;integer&lt;/td&gt;&lt;td&gt;&lt;font color=&quot;#ff9933&quot;&gt;tipo_convenio_id NN&lt;/font&gt;&lt;/td&gt;&lt;/tr&gt;&lt;tr&gt;&lt;td&gt;integer&lt;br&gt;&lt;/td&gt;&lt;td&gt;&lt;span style=&quot;color: rgb(102, 178, 255);&quot;&gt;contrato_general_id FK&lt;/span&gt;&lt;br style=&quot;color: rgb(102, 178, 255);&quot;&gt;&lt;/td&gt;&lt;/tr&gt;&lt;tr&gt;&lt;td&gt;bool&lt;br&gt;&lt;/td&gt;&lt;td&gt;&lt;font color=&quot;#ff0000&quot;&gt;activo NN&lt;br style=&quot;&quot;&gt;&lt;/font&gt;&lt;/td&gt;&lt;/tr&gt;&lt;tr&gt;&lt;td&gt;timestamp&lt;/td&gt;&lt;td&gt;&lt;font color=&quot;#ff0000&quot;&gt;fecha_creacion NN&lt;br style=&quot;&quot;&gt;&lt;/font&gt;&lt;/td&gt;&lt;/tr&gt;&lt;tr&gt;&lt;td&gt;timestamp&lt;br&gt;&lt;/td&gt;&lt;td&gt;&lt;font color=&quot;#ff0000&quot;&gt;fecha_modificacion NN&lt;/font&gt;&lt;br&gt;&lt;/td&gt;&lt;/tr&gt;&lt;/tbody&gt;&lt;/table&gt;" style="verticalAlign=top;align=left;overflow=fill;html=1;rounded=0;shadow=0;comic=0;labelBackgroundColor=none;strokeWidth=1;fontFamily=Verdana;fontSize=12" parent="zNRPTmnQBVuV7urIA7Vq-1" vertex="1">
          <mxGeometry x="-16" y="107" width="260" height="170" as="geometry" />
        </mxCell>
        <mxCell id="zNRPTmnQBVuV7urIA7Vq-12" style="edgeStyle=orthogonalEdgeStyle;html=1;entryX=1;entryY=0.5;dashed=1;labelBackgroundColor=none;startArrow=ERone;endArrow=ERone;fontFamily=Verdana;fontSize=12;align=left;entryDx=0;entryDy=0;startFill=0;endFill=0;exitX=0;exitY=0.25;exitDx=0;exitDy=0;" parent="zNRPTmnQBVuV7urIA7Vq-1" source="zNRPTmnQBVuV7urIA7Vq-4" target="zNRPTmnQBVuV7urIA7Vq-11" edge="1">
          <mxGeometry relative="1" as="geometry">
            <mxPoint x="390" y="475" as="sourcePoint" />
            <mxPoint x="350" y="190" as="targetPoint" />
          </mxGeometry>
        </mxCell>
        <mxCell id="zNRPTmnQBVuV7urIA7Vq-13" value="&lt;div style=&quot;box-sizing: border-box ; width: 100% ; background: #e4e4e4 ; padding: 2px&quot;&gt;contratista&lt;/div&gt;&lt;table style=&quot;width: 100% ; font-size: 1em&quot; cellpadding=&quot;2&quot; cellspacing=&quot;0&quot;&gt;&lt;tbody&gt;&lt;tr&gt;&lt;td&gt;serial&lt;span style=&quot;white-space: pre;&quot;&gt;&#x9;&lt;/span&gt;&lt;/td&gt;&lt;td&gt;id PK&lt;/td&gt;&lt;/tr&gt;&lt;tr&gt;&lt;td&gt;varchar[20]&lt;br&gt;&lt;/td&gt;&lt;td&gt;&lt;b&gt;numero_documento&lt;/b&gt; NN&lt;/td&gt;&lt;/tr&gt;&lt;tr&gt;&lt;td&gt;integer&lt;br&gt;&lt;/td&gt;&lt;td&gt;tipo_persona_id&lt;/td&gt;&lt;/tr&gt;&lt;tr&gt;&lt;td&gt;integer&lt;/td&gt;&lt;td&gt;&lt;font color=&quot;#ff8000&quot;&gt;&lt;b&gt;clase_contratista_id&lt;/b&gt;&lt;/font&gt;&lt;/td&gt;&lt;/tr&gt;&lt;tr&gt;&lt;td&gt;integer&lt;br&gt;&lt;/td&gt;&lt;td&gt;&lt;span style=&quot;color: rgb(102, 178, 255);&quot;&gt;contrato_general_id FK&lt;/span&gt;&lt;br style=&quot;color: rgb(102, 178, 255);&quot;&gt;&lt;/td&gt;&lt;/tr&gt;&lt;tr&gt;&lt;td&gt;bool&lt;br&gt;&lt;/td&gt;&lt;td&gt;&lt;font color=&quot;#ff0000&quot;&gt;activo NN&lt;br style=&quot;&quot;&gt;&lt;/font&gt;&lt;/td&gt;&lt;/tr&gt;&lt;tr&gt;&lt;td&gt;timestamp&lt;/td&gt;&lt;td&gt;&lt;font color=&quot;#ff0000&quot;&gt;fecha_creacion NN&lt;br style=&quot;&quot;&gt;&lt;/font&gt;&lt;/td&gt;&lt;/tr&gt;&lt;tr&gt;&lt;td&gt;timestamp&lt;br&gt;&lt;/td&gt;&lt;td&gt;&lt;font color=&quot;#ff0000&quot;&gt;fecha_modificacion NN&lt;/font&gt;&lt;br&gt;&lt;/td&gt;&lt;/tr&gt;&lt;/tbody&gt;&lt;/table&gt;" style="verticalAlign=top;align=left;overflow=fill;html=1;rounded=0;shadow=0;comic=0;labelBackgroundColor=none;strokeWidth=1;fontFamily=Verdana;fontSize=12" parent="zNRPTmnQBVuV7urIA7Vq-1" vertex="1">
          <mxGeometry x="-16" y="325.5" width="260" height="183" as="geometry" />
        </mxCell>
        <mxCell id="zNRPTmnQBVuV7urIA7Vq-14" style="edgeStyle=orthogonalEdgeStyle;html=1;dashed=1;labelBackgroundColor=none;startArrow=ERone;endArrow=ERone;fontFamily=Verdana;fontSize=12;align=left;endFill=0;startFill=0;exitX=0.003;exitY=0.519;exitDx=0;exitDy=0;exitPerimeter=0;entryX=1;entryY=0.5;entryDx=0;entryDy=0;" parent="zNRPTmnQBVuV7urIA7Vq-1" source="zNRPTmnQBVuV7urIA7Vq-4" target="zNRPTmnQBVuV7urIA7Vq-13" edge="1">
          <mxGeometry relative="1" as="geometry">
            <mxPoint x="400" y="485" as="sourcePoint" />
            <mxPoint x="230" y="373" as="targetPoint" />
          </mxGeometry>
        </mxCell>
        <mxCell id="zNRPTmnQBVuV7urIA7Vq-15" value="&lt;div style=&quot;box-sizing: border-box ; width: 100% ; background: #e4e4e4 ; padding: 2px&quot;&gt;cdp&lt;/div&gt;&lt;table style=&quot;width: 100% ; font-size: 1em&quot; cellpadding=&quot;2&quot; cellspacing=&quot;0&quot;&gt;&lt;tbody&gt;&lt;tr&gt;&lt;td&gt;serial&lt;span style=&quot;white-space: pre;&quot;&gt;&#x9;&lt;/span&gt;&lt;/td&gt;&lt;td&gt;id PK&lt;/td&gt;&lt;/tr&gt;&lt;tr&gt;&lt;td&gt;integer&lt;/td&gt;&lt;td&gt;&lt;font color=&quot;#ff8000&quot;&gt;&lt;b&gt;numero_cdp_id&lt;/b&gt;&lt;/font&gt;&lt;/td&gt;&lt;/tr&gt;&lt;tr&gt;&lt;td&gt;date&lt;/td&gt;&lt;td&gt;&lt;b&gt;fecha_registro&lt;/b&gt;&lt;br&gt;&lt;/td&gt;&lt;/tr&gt;&lt;tr&gt;&lt;td&gt;integer&lt;/td&gt;&lt;td&gt;&lt;b&gt;vigencia_cdp&lt;/b&gt;&lt;/td&gt;&lt;/tr&gt;&lt;tr&gt;&lt;td&gt;integer&lt;br&gt;&lt;/td&gt;&lt;td&gt;&lt;span style=&quot;color: rgb(102, 178, 255);&quot;&gt;contrato_general_id FK&lt;/span&gt;&lt;br style=&quot;color: rgb(102, 178, 255);&quot;&gt;&lt;/td&gt;&lt;/tr&gt;&lt;tr&gt;&lt;td&gt;bool&lt;br&gt;&lt;/td&gt;&lt;td&gt;&lt;font color=&quot;#ff0000&quot;&gt;&lt;b style=&quot;&quot;&gt;activo NN&lt;/b&gt;&lt;br style=&quot;&quot;&gt;&lt;/font&gt;&lt;/td&gt;&lt;/tr&gt;&lt;tr&gt;&lt;td&gt;timestamp&lt;br&gt;&lt;/td&gt;&lt;td&gt;&lt;font color=&quot;#ff0000&quot;&gt;fecha_creacion NN&lt;br style=&quot;&quot;&gt;&lt;/font&gt;&lt;/td&gt;&lt;/tr&gt;&lt;tr&gt;&lt;td&gt;timestamp&lt;br&gt;&lt;/td&gt;&lt;td&gt;&lt;font color=&quot;#ff0000&quot;&gt;fecha_modificacion NN&lt;/font&gt;&lt;br&gt;&lt;/td&gt;&lt;/tr&gt;&lt;/tbody&gt;&lt;/table&gt;" style="verticalAlign=top;align=left;overflow=fill;html=1;rounded=0;shadow=0;comic=0;labelBackgroundColor=none;strokeWidth=1;fontFamily=Verdana;fontSize=12" parent="zNRPTmnQBVuV7urIA7Vq-1" vertex="1">
          <mxGeometry x="-13" y="893" width="260" height="190" as="geometry" />
        </mxCell>
        <mxCell id="zNRPTmnQBVuV7urIA7Vq-16" style="edgeStyle=orthogonalEdgeStyle;html=1;dashed=1;labelBackgroundColor=none;startArrow=ERone;endArrow=ERzeroToMany;fontFamily=Verdana;fontSize=12;align=left;startFill=0;endFill=0;exitX=-0.003;exitY=0.913;exitDx=0;exitDy=0;exitPerimeter=0;entryX=1;entryY=0.5;entryDx=0;entryDy=0;" parent="zNRPTmnQBVuV7urIA7Vq-1" source="zNRPTmnQBVuV7urIA7Vq-4" target="zNRPTmnQBVuV7urIA7Vq-15" edge="1">
          <mxGeometry relative="1" as="geometry">
            <mxPoint x="400" y="485" as="sourcePoint" />
            <mxPoint x="280" y="195" as="targetPoint" />
          </mxGeometry>
        </mxCell>
        <mxCell id="zNRPTmnQBVuV7urIA7Vq-17" value="&lt;div style=&quot;box-sizing: border-box ; width: 100% ; background: #e4e4e4 ; padding: 2px&quot;&gt;registro_presupuestal&lt;/div&gt;&lt;table style=&quot;width: 100% ; font-size: 1em&quot; cellpadding=&quot;2&quot; cellspacing=&quot;0&quot;&gt;&lt;tbody&gt;&lt;tr&gt;&lt;td&gt;serial&lt;span style=&quot;white-space: pre;&quot;&gt;&#x9;&lt;/span&gt;&lt;/td&gt;&lt;td&gt;id PK&lt;/td&gt;&lt;/tr&gt;&lt;tr&gt;&lt;td&gt;integer&lt;/td&gt;&lt;td&gt;&lt;b&gt;numero_disponibilidad&lt;/b&gt;&lt;/td&gt;&lt;/tr&gt;&lt;tr&gt;&lt;td&gt;date&lt;/td&gt;&lt;td&gt;&lt;b&gt;fecha_registro&lt;/b&gt;&lt;br&gt;&lt;/td&gt;&lt;/tr&gt;&lt;tr&gt;&lt;td&gt;integer&lt;/td&gt;&lt;td&gt;vigencia_cdp&lt;/td&gt;&lt;/tr&gt;&lt;tr&gt;&lt;td&gt;serial&lt;br&gt;&lt;/td&gt;&lt;td&gt;&lt;span style=&quot;color: rgb(102, 178, 255);&quot;&gt;cdp_id FK&lt;/span&gt;&lt;br style=&quot;color: rgb(102, 178, 255);&quot;&gt;&lt;/td&gt;&lt;/tr&gt;&lt;tr&gt;&lt;td&gt;bool&lt;br&gt;&lt;/td&gt;&lt;td&gt;&lt;b&gt;&lt;font color=&quot;#ff0000&quot;&gt;activo NN&lt;br style=&quot;&quot;&gt;&lt;/font&gt;&lt;/b&gt;&lt;/td&gt;&lt;/tr&gt;&lt;tr&gt;&lt;td&gt;timestamp&lt;br&gt;&lt;/td&gt;&lt;td&gt;&lt;font color=&quot;#ff0000&quot;&gt;fecha_creacion NN&lt;br style=&quot;&quot;&gt;&lt;/font&gt;&lt;/td&gt;&lt;/tr&gt;&lt;tr&gt;&lt;td&gt;timestamp&lt;/td&gt;&lt;td&gt;&lt;font color=&quot;#ff0000&quot;&gt;fecha_modificacion NN&lt;/font&gt;&lt;br&gt;&lt;/td&gt;&lt;/tr&gt;&lt;/tbody&gt;&lt;/table&gt;" style="verticalAlign=top;align=left;overflow=fill;html=1;rounded=0;shadow=0;comic=0;labelBackgroundColor=none;strokeWidth=1;fontFamily=Verdana;fontSize=12" parent="zNRPTmnQBVuV7urIA7Vq-1" vertex="1">
          <mxGeometry x="-16" y="1164" width="260" height="190" as="geometry" />
        </mxCell>
        <mxCell id="zNRPTmnQBVuV7urIA7Vq-18" style="edgeStyle=orthogonalEdgeStyle;html=1;dashed=1;labelBackgroundColor=none;startArrow=ERone;endArrow=ERone;fontFamily=Verdana;fontSize=12;align=left;startFill=0;endFill=0;exitX=0.5;exitY=1;exitDx=0;exitDy=0;" parent="zNRPTmnQBVuV7urIA7Vq-1" source="zNRPTmnQBVuV7urIA7Vq-15" target="zNRPTmnQBVuV7urIA7Vq-17" edge="1">
          <mxGeometry relative="1" as="geometry">
            <mxPoint x="345" y="814" as="sourcePoint" />
            <mxPoint x="84" y="1017" as="targetPoint" />
            <Array as="points">
              <mxPoint x="124" y="1164" />
            </Array>
          </mxGeometry>
        </mxCell>
        <mxCell id="zNRPTmnQBVuV7urIA7Vq-19" value="&lt;b&gt;&lt;font color=&quot;#ff0000&quot;&gt;Rojo: Campos de Auditoría&lt;/font&gt;&lt;/b&gt;&lt;div&gt;&lt;b&gt;&lt;font color=&quot;#ff0000&quot;&gt;&lt;br&gt;&lt;/font&gt;&lt;/b&gt;&lt;/div&gt;&lt;div&gt;&lt;b&gt;&lt;font color=&quot;#3399ff&quot;&gt;Azul: Llave relación con tabla&lt;/font&gt;&lt;/b&gt;&lt;/div&gt;&lt;div&gt;&lt;b&gt;&lt;font color=&quot;#3399ff&quot;&gt;&lt;br&gt;&lt;/font&gt;&lt;/b&gt;&lt;/div&gt;&lt;div&gt;&lt;b&gt;&lt;font color=&quot;#ff8000&quot;&gt;Amarillo: IDs de Parámetros CRUD&lt;br&gt;&lt;br&gt;&lt;/font&gt;&lt;/b&gt;&lt;i style=&quot;font-family: Verdana; text-align: left; text-wrap-mode: nowrap;&quot;&gt;&lt;font color=&quot;#3333ff&quot;&gt;Azul Cursiva: campos a validar&lt;/font&gt;&lt;/i&gt;&lt;/div&gt;&lt;div&gt;&lt;i style=&quot;font-family: Verdana; text-align: left; text-wrap-mode: nowrap;&quot;&gt;&lt;font color=&quot;#3333ff&quot;&gt;&lt;br&gt;&lt;/font&gt;&lt;/i&gt;&lt;/div&gt;&lt;div&gt;&lt;i style=&quot;font-family: Verdana; text-align: left; text-wrap-mode: nowrap;&quot;&gt;&lt;b&gt;Negrita (cualquier color): Campos existentes en ARGO v1.&lt;/b&gt;&lt;/i&gt;&lt;/div&gt;" style="rounded=0;whiteSpace=wrap;html=1;" parent="zNRPTmnQBVuV7urIA7Vq-1" vertex="1">
          <mxGeometry x="345" y="1486" width="426" height="192" as="geometry" />
        </mxCell>
        <mxCell id="zNRPTmnQBVuV7urIA7Vq-20" value="&lt;span style=&quot;font-size: 40px;&quot;&gt;&lt;b&gt;CONTRATO GENERAL CRUD&lt;/b&gt;&lt;/span&gt;" style="text;html=1;align=center;verticalAlign=middle;whiteSpace=wrap;rounded=0;fontSize=16;" parent="zNRPTmnQBVuV7urIA7Vq-1" vertex="1">
          <mxGeometry x="366" y="-200" width="360" height="150" as="geometry" />
        </mxCell>
        <mxCell id="zNRPTmnQBVuV7urIA7Vq-21" value="&lt;div style=&quot;box-sizing: border-box ; width: 100% ; background: #e4e4e4 ; padding: 2px&quot;&gt;contrato_arrendamiento&lt;/div&gt;&lt;table style=&quot;width: 100% ; font-size: 1em&quot; cellpadding=&quot;2&quot; cellspacing=&quot;0&quot;&gt;&lt;tbody&gt;&lt;tr&gt;&lt;td&gt;serial&lt;span style=&quot;white-space: pre;&quot;&gt;&#x9;&lt;/span&gt;&lt;/td&gt;&lt;td&gt;id PK&lt;/td&gt;&lt;/tr&gt;&lt;tr&gt;&lt;td&gt;varchar&lt;br&gt;&lt;/td&gt;&lt;td&gt;&lt;font color=&quot;#ff8000&quot;&gt;&lt;b&gt;destinacion&lt;/b&gt;&lt;/font&gt;&lt;/td&gt;&lt;/tr&gt;&lt;tr&gt;&lt;td&gt;integer&lt;/td&gt;&lt;td&gt;&lt;b&gt;plazo_pago_mensual&lt;/b&gt;&lt;/td&gt;&lt;/tr&gt;&lt;tr&gt;&lt;td&gt;varchar&lt;/td&gt;&lt;td&gt;&lt;b&gt;reajuste&lt;/b&gt;&lt;br&gt;&lt;/td&gt;&lt;/tr&gt;&lt;tr&gt;&lt;td&gt;integer&lt;/td&gt;&lt;td&gt;&lt;b&gt;plazo_administracion&lt;/b&gt;&lt;/td&gt;&lt;/tr&gt;&lt;tr&gt;&lt;td&gt;&lt;strike&gt;integer&lt;/strike&gt;&amp;nbsp;numeric(16,2)&lt;/td&gt;&lt;td&gt;&lt;b&gt;valor_administracion&lt;/b&gt;&lt;/td&gt;&lt;/tr&gt;&lt;tr&gt;&lt;td&gt;integer&lt;/td&gt;&lt;td&gt;&lt;b&gt;plazo_entrega&lt;/b&gt;&lt;/td&gt;&lt;/tr&gt;&lt;tr&gt;&lt;td&gt;&lt;strike&gt;integer&lt;/strike&gt; numeric(16,2)&lt;/td&gt;&lt;td&gt;&lt;b&gt;valor_arrendamiento&lt;/b&gt;&lt;br&gt;&lt;/td&gt;&lt;/tr&gt;&lt;tr&gt;&lt;td&gt;serial&lt;br&gt;&lt;/td&gt;&lt;td&gt;&lt;span style=&quot;color: rgb(102, 178, 255);&quot;&gt;contrato_general_id FK&lt;/span&gt;&lt;br style=&quot;color: rgb(102, 178, 255);&quot;&gt;&lt;/td&gt;&lt;/tr&gt;&lt;tr&gt;&lt;td&gt;bool&lt;br&gt;&lt;/td&gt;&lt;td&gt;&lt;font color=&quot;#ff0000&quot;&gt;activo NN&lt;br style=&quot;&quot;&gt;&lt;/font&gt;&lt;/td&gt;&lt;/tr&gt;&lt;tr&gt;&lt;td&gt;timestamp&lt;br&gt;&lt;/td&gt;&lt;td&gt;&lt;font color=&quot;#ff0000&quot;&gt;fecha_creacion NN&lt;br style=&quot;&quot;&gt;&lt;/font&gt;&lt;/td&gt;&lt;/tr&gt;&lt;tr&gt;&lt;td&gt;timestamp&lt;/td&gt;&lt;td&gt;&lt;font color=&quot;#ff0000&quot;&gt;fecha_modificacion NN&lt;/font&gt;&lt;br&gt;&lt;/td&gt;&lt;/tr&gt;&lt;/tbody&gt;&lt;/table&gt;" style="verticalAlign=top;align=left;overflow=fill;html=1;rounded=0;shadow=0;comic=0;labelBackgroundColor=none;strokeWidth=1;fontFamily=Verdana;fontSize=12" parent="zNRPTmnQBVuV7urIA7Vq-1" vertex="1">
          <mxGeometry x="-49" y="587" width="315" height="245" as="geometry" />
        </mxCell>
        <mxCell id="zNRPTmnQBVuV7urIA7Vq-22" style="edgeStyle=orthogonalEdgeStyle;html=1;dashed=1;labelBackgroundColor=none;startArrow=ERone;endArrow=ERone;fontFamily=Verdana;fontSize=12;align=left;startFill=0;endFill=0;exitX=0.001;exitY=0.579;exitDx=0;exitDy=0;exitPerimeter=0;entryX=1;entryY=0.5;entryDx=0;entryDy=0;" parent="zNRPTmnQBVuV7urIA7Vq-1" source="zNRPTmnQBVuV7urIA7Vq-4" target="zNRPTmnQBVuV7urIA7Vq-21" edge="1">
          <mxGeometry relative="1" as="geometry">
            <mxPoint x="-129" y="740" as="sourcePoint" />
            <mxPoint x="-290" y="888" as="targetPoint" />
          </mxGeometry>
        </mxCell>
        <mxCell id="zNRPTmnQBVuV7urIA7Vq-23" value="&lt;div style=&quot;box-sizing: border-box ; width: 100% ; background: #e4e4e4 ; padding: 2px&quot;&gt;solicitante&lt;/div&gt;&lt;table style=&quot;width: 100% ; font-size: 1em&quot; cellpadding=&quot;2&quot; cellspacing=&quot;0&quot;&gt;&lt;tbody&gt;&lt;tr&gt;&lt;td&gt;serial&lt;span style=&quot;white-space: pre;&quot;&gt;&#x9;&lt;span style=&quot;white-space: pre;&quot;&gt;&#x9;&lt;/span&gt;&lt;/span&gt;&lt;/td&gt;&lt;td&gt;id PK&lt;/td&gt;&lt;/tr&gt;&lt;tr&gt;&lt;td&gt;integer&lt;/td&gt;&lt;td&gt;&lt;span style=&quot;color: rgb(255, 128, 0);&quot;&gt;&lt;b&gt;dependencia_solicitante_id&lt;/b&gt;&lt;/span&gt;&lt;/td&gt;&lt;/tr&gt;&lt;tr&gt;&lt;td&gt;integer&lt;/td&gt;&lt;td&gt;&lt;font color=&quot;#ff8000&quot;&gt;&lt;b&gt;sede_solicitente_id&lt;/b&gt;&lt;/font&gt;&lt;/td&gt;&lt;/tr&gt;&lt;tr&gt;&lt;td&gt;integer&lt;br&gt;&lt;/td&gt;&lt;td&gt;&lt;span style=&quot;color: rgb(102, 178, 255);&quot;&gt;contrato_general_id FK&lt;/span&gt;&lt;br style=&quot;color: rgb(102, 178, 255);&quot;&gt;&lt;/td&gt;&lt;/tr&gt;&lt;tr&gt;&lt;td&gt;bool&lt;br&gt;&lt;/td&gt;&lt;td&gt;&lt;font color=&quot;#ff0000&quot;&gt;activo NN&lt;br style=&quot;&quot;&gt;&lt;/font&gt;&lt;/td&gt;&lt;/tr&gt;&lt;tr&gt;&lt;td&gt;timestamp&lt;br&gt;&lt;/td&gt;&lt;td&gt;&lt;font color=&quot;#ff0000&quot;&gt;fecha_creacion NN&lt;br style=&quot;&quot;&gt;&lt;/font&gt;&lt;/td&gt;&lt;/tr&gt;&lt;tr&gt;&lt;td&gt;timestamp&lt;br&gt;&lt;/td&gt;&lt;td&gt;&lt;font color=&quot;#ff0000&quot;&gt;fecha_modificacion NN&lt;/font&gt;&lt;br&gt;&lt;/td&gt;&lt;/tr&gt;&lt;/tbody&gt;&lt;/table&gt;" style="verticalAlign=top;align=left;overflow=fill;html=1;rounded=0;shadow=0;comic=0;labelBackgroundColor=none;strokeWidth=1;fontFamily=Verdana;fontSize=12" parent="zNRPTmnQBVuV7urIA7Vq-1" vertex="1">
          <mxGeometry x="878.5" y="517" width="312" height="150" as="geometry" />
        </mxCell>
        <mxCell id="zNRPTmnQBVuV7urIA7Vq-24" style="edgeStyle=orthogonalEdgeStyle;html=1;dashed=1;labelBackgroundColor=none;startArrow=ERone;endArrow=ERone;fontFamily=Verdana;fontSize=12;align=left;startFill=0;endFill=0;entryX=0;entryY=0.5;entryDx=0;entryDy=0;exitX=1;exitY=0.37;exitDx=0;exitDy=0;exitPerimeter=0;" parent="zNRPTmnQBVuV7urIA7Vq-1" source="zNRPTmnQBVuV7urIA7Vq-4" target="zNRPTmnQBVuV7urIA7Vq-23" edge="1">
          <mxGeometry relative="1" as="geometry">
            <mxPoint x="750" y="310" as="sourcePoint" />
            <mxPoint x="950" y="1100" as="targetPoint" />
          </mxGeometry>
        </mxCell>
        <mxCell id="zNRPTmnQBVuV7urIA7Vq-25" value="Datos obtenidos de Ágora" style="shape=note2;boundedLbl=1;whiteSpace=wrap;html=1;size=25;verticalAlign=top;align=center;fillColor=#dae8fc;strokeColor=#6c8ebf;" parent="zNRPTmnQBVuV7urIA7Vq-1" vertex="1">
          <mxGeometry x="34" y="498" width="160" height="60" as="geometry" />
        </mxCell>
        <mxCell id="zNRPTmnQBVuV7urIA7Vq-26" value="Datos obtenidos de SiCapital" style="shape=note2;boundedLbl=1;whiteSpace=wrap;html=1;size=25;verticalAlign=top;align=center;fillColor=#dae8fc;strokeColor=#6c8ebf;" parent="zNRPTmnQBVuV7urIA7Vq-1" vertex="1">
          <mxGeometry x="29" y="1341" width="170" height="60" as="geometry" />
        </mxCell>
        <mxCell id="ZpmqvH9QTiNsi8wLd9IY-0" value="&lt;div style=&quot;box-sizing: border-box ; width: 100% ; background: #e4e4e4 ; padding: 2px&quot;&gt;supervisor_contrato&lt;/div&gt;&lt;table style=&quot;width: 100% ; font-size: 1em&quot; cellpadding=&quot;2&quot; cellspacing=&quot;0&quot;&gt;&lt;tbody&gt;&lt;tr&gt;&lt;td&gt;serial&lt;span style=&quot;white-space: pre;&quot;&gt;&#x9;&lt;/span&gt;&lt;/td&gt;&lt;td&gt;id PK&lt;/td&gt;&lt;/tr&gt;&lt;tr&gt;&lt;td&gt;integer&lt;/td&gt;&lt;td&gt;&lt;span style=&quot;color: rgb(51, 153, 255);&quot;&gt;contrato_general_id FK&lt;/span&gt;&lt;br&gt;&lt;/td&gt;&lt;/tr&gt;&lt;tr&gt;&lt;td&gt;integer&lt;/td&gt;&lt;td&gt;&lt;b style=&quot;&quot;&gt;supervisor_id&lt;/b&gt; NN&lt;/td&gt;&lt;/tr&gt;&lt;tr&gt;&lt;td&gt;bool&lt;br&gt;&lt;/td&gt;&lt;td&gt;&lt;font color=&quot;#ff0000&quot;&gt;activo NN&lt;br style=&quot;&quot;&gt;&lt;/font&gt;&lt;/td&gt;&lt;/tr&gt;&lt;tr&gt;&lt;td&gt;timestamp&lt;br&gt;&lt;/td&gt;&lt;td&gt;&lt;font color=&quot;#ff0000&quot;&gt;fecha_creacion NN&lt;/font&gt;&lt;/td&gt;&lt;/tr&gt;&lt;tr&gt;&lt;td&gt;timestamp&lt;/td&gt;&lt;td&gt;&lt;font color=&quot;#ff0000&quot;&gt;fecha_modificacion NN&lt;/font&gt;&lt;br style=&quot;color: rgb(204, 0, 0);&quot;&gt;&lt;/td&gt;&lt;/tr&gt;&lt;/tbody&gt;&lt;/table&gt;" style="verticalAlign=top;align=left;overflow=fill;html=1;rounded=0;shadow=0;comic=0;labelBackgroundColor=none;strokeWidth=1;fontFamily=Verdana;fontSize=12;" parent="zNRPTmnQBVuV7urIA7Vq-1" vertex="1">
          <mxGeometry x="-16" y="-78" width="260" height="136" as="geometry" />
        </mxCell>
        <mxCell id="ZpmqvH9QTiNsi8wLd9IY-1" style="edgeStyle=orthogonalEdgeStyle;html=1;entryX=0.004;entryY=0.071;dashed=1;labelBackgroundColor=none;startArrow=ERoneToMany;endArrow=ERmandOne;fontFamily=Verdana;fontSize=12;align=left;entryDx=0;entryDy=0;startFill=0;endFill=0;entryPerimeter=0;" parent="zNRPTmnQBVuV7urIA7Vq-1" source="ZpmqvH9QTiNsi8wLd9IY-0" target="zNRPTmnQBVuV7urIA7Vq-4" edge="1">
          <mxGeometry relative="1" as="geometry">
            <mxPoint x="940" y="120" as="sourcePoint" />
            <mxPoint x="790" y="-28" as="targetPoint" />
            <Array as="points">
              <mxPoint x="308" y="-14" />
              <mxPoint x="308" y="155" />
            </Array>
          </mxGeometry>
        </mxCell>
        <mxCell id="KsX1xWN-LLje91sA29KS-0" value="&lt;div style=&quot;box-sizing: border-box ; width: 100% ; background: #e4e4e4 ; padding: 2px&quot;&gt;documento_contrato&lt;/div&gt;&lt;table style=&quot;width: 100% ; font-size: 1em&quot; cellpadding=&quot;2&quot; cellspacing=&quot;0&quot;&gt;&lt;tbody&gt;&lt;tr&gt;&lt;td&gt;serial&lt;/td&gt;&lt;td&gt;id PK&lt;/td&gt;&lt;/tr&gt;&lt;tr&gt;&lt;td&gt;integer&lt;br&gt;&lt;/td&gt;&lt;td&gt;&lt;font color=&quot;#ff8000&quot;&gt;tipo_documento_id&lt;br&gt;&lt;/font&gt;&lt;/td&gt;&lt;/tr&gt;&lt;tr&gt;&lt;td&gt;integer&lt;/td&gt;&lt;td&gt;documento_id&lt;/td&gt;&lt;/tr&gt;&lt;tr&gt;&lt;td&gt;varchar[50]&lt;br&gt;integer&lt;/td&gt;&lt;td&gt;documento_enlace&lt;br&gt;&lt;font color=&quot;#66b2ff&quot;&gt;contrato_general_id FK&lt;/font&gt;&lt;/td&gt;&lt;/tr&gt;&lt;tr&gt;&lt;td&gt;bool&lt;/td&gt;&lt;td&gt;&lt;font color=&quot;#ff0000&quot;&gt;activo NN&lt;/font&gt;&lt;br&gt;&lt;/td&gt;&lt;/tr&gt;&lt;/tbody&gt;&lt;/table&gt;" style="verticalAlign=top;align=left;overflow=fill;html=1;rounded=0;shadow=0;comic=0;labelBackgroundColor=none;strokeWidth=1;fontFamily=Verdana;fontSize=12" parent="zNRPTmnQBVuV7urIA7Vq-1" vertex="1">
          <mxGeometry x="287" y="1140" width="225" height="137" as="geometry" />
        </mxCell>
        <mxCell id="KsX1xWN-LLje91sA29KS-1" value="Datos obtenidos del Gestor Documental" style="shape=note2;boundedLbl=1;whiteSpace=wrap;html=1;size=25;verticalAlign=top;align=center;fillColor=#dae8fc;strokeColor=#6c8ebf;" parent="zNRPTmnQBVuV7urIA7Vq-1" vertex="1">
          <mxGeometry x="314.5" y="1267" width="170" height="71" as="geometry" />
        </mxCell>
        <mxCell id="CwyrGL1_X2ASCX3xARKO-0" style="html=1;dashed=1;labelBackgroundColor=none;startArrow=ERone;endArrow=ERzeroToMany;fontFamily=Verdana;fontSize=12;align=left;startFill=0;endFill=0;exitX=0.201;exitY=1.005;exitDx=0;exitDy=0;entryX=0.5;entryY=0;entryDx=0;entryDy=0;exitPerimeter=0;edgeStyle=orthogonalEdgeStyle;" parent="zNRPTmnQBVuV7urIA7Vq-1" source="zNRPTmnQBVuV7urIA7Vq-4" target="KsX1xWN-LLje91sA29KS-0" edge="1">
          <mxGeometry relative="1" as="geometry">
            <mxPoint x="540.74" y="824.1699999999995" as="sourcePoint" />
            <mxPoint x="398" y="955.9719999999999" as="targetPoint" />
          </mxGeometry>
        </mxCell>
        <mxCell id="K97LVaJD6t3aZZeNNYm3-0" value="Datos obtenidos del Parámetros Crud" style="shape=note2;boundedLbl=1;whiteSpace=wrap;html=1;size=25;verticalAlign=top;align=center;fillColor=#dae8fc;strokeColor=#6c8ebf;" parent="zNRPTmnQBVuV7urIA7Vq-1" vertex="1">
          <mxGeometry x="932" y="917" width="170" height="71" as="geometry" />
        </mxCell>
        <mxCell id="diFVzb_e6bwaqK89cZsz-5" value="&lt;div style=&quot;box-sizing: border-box ; width: 100% ; background: #e4e4e4 ; padding: 2px&quot;&gt;acta_inicio&lt;/div&gt;&lt;table style=&quot;width: 100% ; font-size: 1em&quot; cellpadding=&quot;2&quot; cellspacing=&quot;0&quot;&gt;&lt;tbody&gt;&lt;tr&gt;&lt;td&gt;serial&lt;span style=&quot;white-space: pre;&quot;&gt;&#x9;&lt;/span&gt;&lt;/td&gt;&lt;td&gt;id PK&amp;nbsp;&lt;/td&gt;&lt;/tr&gt;&lt;tr&gt;&lt;td&gt;integer&lt;br&gt;varchar&lt;br&gt;&lt;/td&gt;&lt;td&gt;&lt;font style=&quot;&quot; color=&quot;#080808&quot;&gt;usuario_id&lt;/font&gt;&lt;br&gt;&lt;b&gt;usuario_legado&lt;/b&gt;&lt;br&gt;&lt;/td&gt;&lt;/tr&gt;&lt;tr&gt;&lt;td&gt;varchar&lt;/td&gt;&lt;td&gt;&lt;b&gt;descripcion&lt;/b&gt;&lt;/td&gt;&lt;/tr&gt;&lt;tr&gt;&lt;td&gt;date&lt;br&gt;date&lt;/td&gt;&lt;td&gt;&lt;b&gt;fecha_inicio&lt;/b&gt;&lt;br&gt;&lt;b&gt;fecha_fin&lt;/b&gt;&lt;/td&gt;&lt;/tr&gt;&lt;tr&gt;&lt;td&gt;integer&lt;br&gt;&lt;/td&gt;&lt;td&gt;&lt;span style=&quot;color: rgb(102, 178, 255);&quot;&gt;contrato_general_id FK&lt;/span&gt;&lt;br style=&quot;color: rgb(102, 178, 255);&quot;&gt;&lt;/td&gt;&lt;/tr&gt;&lt;tr&gt;&lt;td&gt;bool&lt;br&gt;&lt;/td&gt;&lt;td&gt;&lt;font color=&quot;#ff0000&quot;&gt;activo NN&lt;br style=&quot;&quot;&gt;&lt;/font&gt;&lt;/td&gt;&lt;/tr&gt;&lt;tr&gt;&lt;td&gt;timestamp&lt;/td&gt;&lt;td&gt;&lt;b&gt;&lt;font color=&quot;#ff0000&quot;&gt;fecha_creacion NN&lt;br style=&quot;&quot;&gt;&lt;/font&gt;&lt;/b&gt;&lt;/td&gt;&lt;/tr&gt;&lt;tr&gt;&lt;td&gt;timestamp&lt;br&gt;&lt;/td&gt;&lt;td&gt;&lt;font color=&quot;#ff0000&quot;&gt;fecha_modificacion NN&lt;/font&gt;&lt;br&gt;&lt;/td&gt;&lt;/tr&gt;&lt;/tbody&gt;&lt;/table&gt;" style="verticalAlign=top;align=left;overflow=fill;html=1;rounded=0;shadow=0;comic=0;labelBackgroundColor=none;strokeWidth=1;fontFamily=Verdana;fontSize=12" parent="zNRPTmnQBVuV7urIA7Vq-1" vertex="1">
          <mxGeometry x="557" y="1140" width="260" height="213" as="geometry" />
        </mxCell>
        <mxCell id="diFVzb_e6bwaqK89cZsz-6" value="Datos obtenidos de terceros" style="shape=note2;boundedLbl=1;whiteSpace=wrap;html=1;size=25;verticalAlign=top;align=center;fillColor=#dae8fc;strokeColor=#6c8ebf;" parent="zNRPTmnQBVuV7urIA7Vq-1" vertex="1">
          <mxGeometry x="602" y="1342" width="170" height="59" as="geometry" />
        </mxCell>
        <mxCell id="diFVzb_e6bwaqK89cZsz-9" style="edgeStyle=orthogonalEdgeStyle;rounded=0;orthogonalLoop=1;jettySize=auto;html=1;exitX=0.5;exitY=1;exitDx=0;exitDy=0;exitPerimeter=0;" parent="zNRPTmnQBVuV7urIA7Vq-1" source="diFVzb_e6bwaqK89cZsz-6" target="diFVzb_e6bwaqK89cZsz-6" edge="1">
          <mxGeometry relative="1" as="geometry" />
        </mxCell>
        <mxCell id="n3Rvxuj6A6GzHhtsgbl1-2" style="edgeStyle=orthogonalEdgeStyle;html=1;dashed=1;labelBackgroundColor=none;startArrow=ERone;endArrow=ERzeroToMany;fontFamily=Verdana;fontSize=12;align=left;startFill=0;endFill=0;exitX=0.639;exitY=0.999;exitDx=0;exitDy=0;entryX=0.5;entryY=0;entryDx=0;entryDy=0;exitPerimeter=0;" parent="zNRPTmnQBVuV7urIA7Vq-1" source="zNRPTmnQBVuV7urIA7Vq-4" target="diFVzb_e6bwaqK89cZsz-5" edge="1">
          <mxGeometry relative="1" as="geometry">
            <mxPoint x="618" y="854" as="sourcePoint" />
            <mxPoint x="503" y="993" as="targetPoint" />
          </mxGeometry>
        </mxCell>
        <mxCell id="n3Rvxuj6A6GzHhtsgbl1-3" style="edgeStyle=orthogonalEdgeStyle;html=1;dashed=1;labelBackgroundColor=none;startArrow=ERone;endArrow=ERzeroToMany;fontFamily=Verdana;fontSize=12;align=left;startFill=0;endFill=0;exitX=0.945;exitY=1.001;exitDx=0;exitDy=0;exitPerimeter=0;entryX=0.5;entryY=0;entryDx=0;entryDy=0;" parent="zNRPTmnQBVuV7urIA7Vq-1" source="zNRPTmnQBVuV7urIA7Vq-4" target="n3Rvxuj6A6GzHhtsgbl1-4" edge="1">
          <mxGeometry relative="1" as="geometry">
            <mxPoint x="784" y="805" as="sourcePoint" />
            <mxPoint x="953" y="1022" as="targetPoint" />
            <Array as="points">
              <mxPoint x="708" y="1008" />
              <mxPoint x="1035" y="1008" />
            </Array>
          </mxGeometry>
        </mxCell>
        <mxCell id="n3Rvxuj6A6GzHhtsgbl1-4" value="&lt;div style=&quot;box-sizing: border-box ; width: 100% ; background: #e4e4e4 ; padding: 2px&quot;&gt;especificacion_tecnica&lt;/div&gt;&lt;table style=&quot;width: 100% ; font-size: 1em&quot; cellpadding=&quot;2&quot; cellspacing=&quot;0&quot;&gt;&lt;tbody&gt;&lt;tr&gt;&lt;td&gt;&lt;/td&gt;&lt;td&gt;&lt;/td&gt;&lt;/tr&gt;&lt;tr&gt;&lt;td&gt;serial&lt;/td&gt;&lt;td&gt;id PK&lt;br&gt;&lt;/td&gt;&lt;/tr&gt;&lt;tr&gt;&lt;td&gt;varchar&lt;/td&gt;&lt;td&gt;&lt;b&gt;descripcion&lt;/b&gt;&lt;/td&gt;&lt;/tr&gt;&lt;tr&gt;&lt;td&gt;integer (numeric?)&lt;br&gt;numeric(16,2)&lt;br&gt;numeric(16,2)&lt;/td&gt;&lt;td&gt;&lt;b&gt;cantidad&lt;/b&gt;&lt;br&gt;valor_unitario&lt;br&gt;valor_total&lt;/td&gt;&lt;/tr&gt;&lt;tr&gt;&lt;td&gt;integer&lt;br&gt;&lt;/td&gt;&lt;td&gt;&lt;span style=&quot;color: rgb(102, 178, 255);&quot;&gt;contrato_general_id FK&lt;/span&gt;&lt;br style=&quot;color: rgb(102, 178, 255);&quot;&gt;&lt;/td&gt;&lt;/tr&gt;&lt;tr&gt;&lt;td&gt;bool&lt;br&gt;&lt;/td&gt;&lt;td&gt;&lt;font color=&quot;#ff0000&quot;&gt;activo NN&lt;br style=&quot;&quot;&gt;&lt;/font&gt;&lt;/td&gt;&lt;/tr&gt;&lt;tr&gt;&lt;td&gt;timestamp&lt;/td&gt;&lt;td&gt;&lt;font color=&quot;#ff0000&quot;&gt;fecha_creacion NN&lt;br style=&quot;&quot;&gt;&lt;/font&gt;&lt;/td&gt;&lt;/tr&gt;&lt;tr&gt;&lt;td&gt;timestamp&lt;br&gt;&lt;/td&gt;&lt;td&gt;&lt;font color=&quot;#ff0000&quot;&gt;fecha_modificacion NN&lt;/font&gt;&lt;br&gt;&lt;/td&gt;&lt;/tr&gt;&lt;/tbody&gt;&lt;/table&gt;" style="verticalAlign=top;align=left;overflow=fill;html=1;rounded=0;shadow=0;comic=0;labelBackgroundColor=none;strokeWidth=1;fontFamily=Verdana;fontSize=12" parent="zNRPTmnQBVuV7urIA7Vq-1" vertex="1">
          <mxGeometry x="884" y="1140" width="301" height="195" as="geometry" />
        </mxCell>
        <mxCell id="GkvEynNfjca38wLkkJqm-1" value="&lt;div style=&quot;box-sizing: border-box ; width: 100% ; background: #e4e4e4 ; padding: 2px&quot;&gt;ordenador_contrato&lt;/div&gt;&lt;table style=&quot;width: 100% ; font-size: 1em&quot; cellpadding=&quot;2&quot; cellspacing=&quot;0&quot;&gt;&lt;tbody&gt;&lt;tr&gt;&lt;td&gt;serial&lt;span style=&quot;white-space: pre;&quot;&gt;&#x9;&lt;/span&gt;&lt;/td&gt;&lt;td&gt;id PK&lt;/td&gt;&lt;/tr&gt;&lt;tr&gt;&lt;td&gt;integer&lt;/td&gt;&lt;td&gt;&lt;span style=&quot;color: rgb(51, 153, 255);&quot;&gt;contrato_general_id FK&lt;/span&gt;&lt;br&gt;&lt;/td&gt;&lt;/tr&gt;&lt;tr&gt;&lt;td&gt;integer&lt;/td&gt;&lt;td&gt;tercero_id&lt;/td&gt;&lt;/tr&gt;&lt;tr&gt;&lt;td&gt;integer&lt;/td&gt;&lt;td&gt;&lt;b&gt;ordenador_argo_id&lt;/b&gt;&lt;br&gt;&lt;/td&gt;&lt;/tr&gt;&lt;tr&gt;&lt;td&gt;integer&lt;/td&gt;&lt;td&gt;&lt;b&gt;ordenador_sikarca_id&lt;/b&gt;&lt;/td&gt;&lt;/tr&gt;&lt;tr&gt;&lt;td&gt;varchar&lt;/td&gt;&lt;td&gt;resolucion&lt;/td&gt;&lt;/tr&gt;&lt;tr&gt;&lt;td&gt;varchar&lt;/td&gt;&lt;td&gt;&lt;b&gt;documento_identidad&lt;/b&gt;&lt;/td&gt;&lt;/tr&gt;&lt;tr&gt;&lt;td&gt;integer&lt;/td&gt;&lt;td&gt;cargo_id&lt;/td&gt;&lt;/tr&gt;&lt;tr&gt;&lt;td&gt;bool&lt;br&gt;&lt;/td&gt;&lt;td&gt;&lt;font color=&quot;#ff0000&quot;&gt;activo NN&lt;br style=&quot;&quot;&gt;&lt;/font&gt;&lt;/td&gt;&lt;/tr&gt;&lt;tr&gt;&lt;td&gt;timestamp&lt;br&gt;&lt;/td&gt;&lt;td&gt;&lt;font color=&quot;#ff0000&quot;&gt;fecha_creacion NN&lt;/font&gt;&lt;/td&gt;&lt;/tr&gt;&lt;tr&gt;&lt;td&gt;timestamp&lt;/td&gt;&lt;td&gt;&lt;font color=&quot;#ff0000&quot;&gt;fecha_modificacion NN&lt;/font&gt;&lt;br style=&quot;color: rgb(204, 0, 0);&quot;&gt;&lt;/td&gt;&lt;/tr&gt;&lt;/tbody&gt;&lt;/table&gt;" style="verticalAlign=top;align=left;overflow=fill;html=1;rounded=0;shadow=0;comic=0;labelBackgroundColor=none;strokeWidth=1;fontFamily=Verdana;fontSize=12;" parent="zNRPTmnQBVuV7urIA7Vq-1" vertex="1">
          <mxGeometry x="878.5" y="-88" width="260" height="248" as="geometry" />
        </mxCell>
        <mxCell id="GkvEynNfjca38wLkkJqm-2" style="edgeStyle=orthogonalEdgeStyle;html=1;labelBackgroundColor=none;startArrow=ERone;endArrow=ERone;fontFamily=Verdana;fontSize=12;align=left;dashed=1;startFill=0;endFill=0;exitX=0;exitY=0.5;exitDx=0;exitDy=0;entryX=1;entryY=0.114;entryDx=0;entryDy=0;entryPerimeter=0;" parent="zNRPTmnQBVuV7urIA7Vq-1" source="GkvEynNfjca38wLkkJqm-1" target="zNRPTmnQBVuV7urIA7Vq-4" edge="1">
          <mxGeometry relative="1" as="geometry">
            <mxPoint x="327" y="-18" as="sourcePoint" />
            <mxPoint x="477" y="21" as="targetPoint" />
            <Array as="points">
              <mxPoint x="799" y="36" />
              <mxPoint x="799" y="187" />
            </Array>
          </mxGeometry>
        </mxCell>
        <mxCell id="GkvEynNfjca38wLkkJqm-3" value="Datos obtenidos de&lt;div&gt;&lt;span style=&quot;background-color: initial;&quot;&gt;Terceros y de Sikarca&lt;/span&gt;&lt;/div&gt;" style="shape=note2;boundedLbl=1;whiteSpace=wrap;html=1;size=25;verticalAlign=top;align=center;fillColor=#dae8fc;strokeColor=#6c8ebf;" parent="zNRPTmnQBVuV7urIA7Vq-1" vertex="1">
          <mxGeometry x="920.5" y="140" width="170" height="71" as="geometry" />
        </mxCell>
      </root>
    </mxGraphModel>
  </diagram>
</mxfile>
